{
	"asset":{
		"generator":"Khronos glTF Blender I/O v3.6.6",
		"version":"2.0"
	},
	"extensionsUsed":[
		"KHR_materials_unlit"
	],
	"scene":0,
	"scenes":[
		{
			"name":"Scene",
			"nodes":[
				0,
				1,
				2,
				3,
				4,
				5,
				6,
				7,
				8,
				9,
				10
			]
		}
	],
	"nodes":[
		{
			"mesh":0,
			"name":"Circle"
		},
		{
			"mesh":1,
			"name":"Eye"
		},
		{
			"mesh":2,
			"name":"Plane.002"
		},
		{
			"mesh":3,
			"name":"Sphere"
		},
		{
			"mesh":4,
			"name":"Cylinder.003",
			"scale":[
				1,
				1.000002145767212,
				1
			]
		},
		{
			"mesh":5,
			"name":"Plane.004"
		},
		{
			"mesh":6,
			"name":"NurbsPath.007"
		},
		{
			"mesh":7,
			"name":"Eyelid"
		},
		{
			"mesh":8,
			"name":"NurbsPath"
		},
		{
			"mesh":9,
			"name":"NurbsPath.001"
		},
		{
			"mesh":10,
			"name":"Cube.004"
		}
	],
	"materials":[
		{
			"extensions":{
				"KHR_materials_unlit":{}
			},
			"name":"Face",
			"pbrMetallicRoughness":{
				"baseColorFactor":[
					1,
					0.8148458003997803,
					0.6307573318481445,
					1
				],
				"metallicFactor":0,
				"roughnessFactor":0.9
			}
		},
		{
			"doubleSided":true,
			"extensions":{
				"KHR_materials_unlit":{}
			},
			"name":"Eye.White",
			"pbrMetallicRoughness":{
				"baseColorFactor":[
					0.800000011920929,
					0.800000011920929,
					0.800000011920929,
					1
				],
				"metallicFactor":0,
				"roughnessFactor":0.9
			}
		},
		{
			"doubleSided":true,
			"extensions":{
				"KHR_materials_unlit":{}
			},
			"name":"Eyes",
			"pbrMetallicRoughness":{
				"baseColorTexture":{
					"index":0,
					"texCoord":0
				},
				"metallicFactor":0,
				"roughnessFactor":0.9
			}
		},
		{
			"doubleSided":true,
			"name":"Hair",
			"pbrMetallicRoughness":{
				"baseColorFactor":[
					0.8000000715255737,
					0.3688969910144806,
					0.6888364553451538,
					1
				],
				"metallicFactor":0,
				"roughnessFactor":0.5
			}
		},
		{
			"doubleSided":true,
			"name":"Body",
			"pbrMetallicRoughness":{
				"baseColorFactor":[
					1,
					0.8148458003997803,
					0.6307573318481445,
					1
				],
				"metallicFactor":0,
				"roughnessFactor":0.5
			}
		},
		{
			"doubleSided":true,
			"extensions":{
				"KHR_materials_unlit":{}
			},
			"name":"EyeReflection",
			"pbrMetallicRoughness":{
				"baseColorFactor":[
					0.800000011920929,
					0.800000011920929,
					0.800000011920929,
					1
				],
				"metallicFactor":0,
				"roughnessFactor":0.9
			}
		},
		{
			"doubleSided":true,
			"extensions":{
				"KHR_materials_unlit":{}
			},
			"name":"Eyelid",
			"pbrMetallicRoughness":{
				"baseColorFactor":[
					0.06662596762180328,
					0.01599627546966076,
					0,
					1
				],
				"metallicFactor":0,
				"roughnessFactor":0.9
			}
		}
	],
	"meshes":[
		{
			"name":"Circle",
			"primitives":[
				{
					"attributes":{
						"POSITION":0,
						"TEXCOORD_0":1,
						"NORMAL":2
					},
					"indices":3,
					"material":0
				},
				{
					"attributes":{
						"POSITION":4,
						"TEXCOORD_0":5,
						"NORMAL":6
					},
					"indices":7,
					"material":1
				}
			]
		},
		{
			"name":"Circle.001",
			"primitives":[
				{
					"attributes":{
						"POSITION":8,
						"TEXCOORD_0":9,
						"NORMAL":10
					},
					"indices":11,
					"material":2
				}
			]
		},
		{
			"name":"Plane.002",
			"primitives":[
				{
					"attributes":{
						"POSITION":12,
						"TEXCOORD_0":13,
						"NORMAL":14
					},
					"indices":15,
					"material":3
				}
			]
		},
		{
			"name":"Sphere",
			"primitives":[
				{
					"attributes":{
						"POSITION":16,
						"TEXCOORD_0":17,
						"NORMAL":18
					},
					"indices":19,
					"material":3
				}
			]
		},
		{
			"name":"Cylinder.003",
			"primitives":[
				{
					"attributes":{
						"POSITION":20,
						"TEXCOORD_0":21,
						"NORMAL":22
					},
					"indices":23,
					"material":4
				}
			]
		},
		{
			"name":"Plane.001",
			"primitives":[
				{
					"attributes":{
						"POSITION":24,
						"TEXCOORD_0":25,
						"NORMAL":26
					},
					"indices":27,
					"material":5
				}
			]
		},
		{
			"name":"NurbsPath.009",
			"primitives":[
				{
					"attributes":{
						"POSITION":28,
						"TEXCOORD_0":29,
						"NORMAL":30
					},
					"indices":31,
					"material":3
				}
			]
		},
		{
			"name":"Circle.007",
			"primitives":[
				{
					"attributes":{
						"POSITION":32,
						"TEXCOORD_0":33,
						"NORMAL":34
					},
					"indices":35,
					"material":6
				}
			]
		},
		{
			"name":"NurbsPath",
			"primitives":[
				{
					"attributes":{
						"POSITION":36,
						"TEXCOORD_0":37,
						"NORMAL":38
					},
					"indices":39,
					"material":3
				}
			]
		},
		{
			"name":"NurbsPath.001",
			"primitives":[
				{
					"attributes":{
						"POSITION":40,
						"TEXCOORD_0":41,
						"NORMAL":42
					},
					"indices":43,
					"material":3
				}
			]
		},
		{
			"name":"Cube.004",
			"primitives":[
				{
					"attributes":{
						"POSITION":44,
						"TEXCOORD_0":45,
						"NORMAL":46
					},
					"indices":47
				}
			]
		}
	],
	"textures":[
		{
			"sampler":0,
			"source":0
		}
	],
	"images":[
		{
			"bufferView":12,
			"mimeType":"image/png",
			"name":"EmotionsBaseColor"
		}
	],
	"accessors":[
		{
			"bufferView":0,
			"componentType":5126,
			"count":1850,
			"max":[
				0.08793400228023529,
				1.5278840065002441,
				0.12504607439041138
			],
			"min":[
				-0.08793400228023529,
				1.3115217685699463,
				-0.05821298435330391
			],
			"type":"VEC3"
		},
		{
			"bufferView":1,
			"componentType":5126,
			"count":1850,
			"type":"VEC2"
		},
		{
			"bufferView":2,
			"componentType":5126,
			"count":1850,
			"type":"VEC3"
		},
		{
			"bufferView":3,
			"componentType":5123,
			"count":8805,
			"type":"SCALAR"
		},
		{
			"bufferView":4,
			"componentType":5126,
			"count":132,
			"max":[
				0.06960202753543854,
				1.4335118532180786,
				0.08941681683063507
			],
			"min":[
				-0.06960202753543854,
				1.3676631450653076,
				0.07389792799949646
			],
			"type":"VEC3"
		},
		{
			"bufferView":5,
			"componentType":5126,
			"count":132,
			"type":"VEC2"
		},
		{
			"bufferView":6,
			"componentType":5126,
			"count":132,
			"type":"VEC3"
		},
		{
			"bufferView":7,
			"componentType":5123,
			"count":630,
			"type":"SCALAR"
		},
		{
			"bufferView":8,
			"componentType":5126,
			"count":132,
			"max":[
				0.05570392310619354,
				1.4152634143829346,
				0.09351076930761337
			],
			"min":[
				-0.05570392310619354,
				1.3830795288085938,
				0.08597980439662933
			],
			"type":"VEC3"
		},
		{
			"bufferView":9,
			"componentType":5126,
			"count":132,
			"type":"VEC2"
		},
		{
			"bufferView":10,
			"componentType":5126,
			"count":132,
			"type":"VEC3"
		},
		{
			"bufferView":11,
			"componentType":5123,
			"count":768,
			"type":"SCALAR"
		},
		{
			"bufferView":13,
			"componentType":5126,
			"count":327,
			"max":[
				0.09298503398895264,
				1.5597506761550903,
				0.14898765087127686
			],
			"min":[
				-0.10523920506238937,
				1.3552883863449097,
				0.035385556519031525
			],
			"type":"VEC3"
		},
		{
			"bufferView":14,
			"componentType":5126,
			"count":327,
			"type":"VEC2"
		},
		{
			"bufferView":15,
			"componentType":5126,
			"count":327,
			"type":"VEC3"
		},
		{
			"bufferView":16,
			"componentType":5123,
			"count":1407,
			"type":"SCALAR"
		},
		{
			"bufferView":17,
			"componentType":5126,
			"count":408,
			"max":[
				0.09587164968252182,
				1.5658084154129028,
				0.1154383197426796
			],
			"min":[
				-0.09587164968252182,
				1.3538004159927368,
				-0.10276245325803757
			],
			"type":"VEC3"
		},
		{
			"bufferView":18,
			"componentType":5126,
			"count":408,
			"type":"VEC2"
		},
		{
			"bufferView":19,
			"componentType":5126,
			"count":408,
			"type":"VEC3"
		},
		{
			"bufferView":20,
			"componentType":5123,
			"count":2184,
			"type":"SCALAR"
		},
		{
			"bufferView":21,
			"componentType":5126,
			"count":3224,
			"max":[
				0.6205134391784668,
				1.3692851066589355,
				0.12885868549346924
			],
			"min":[
				-0.6205134391784668,
				0.13622093200683594,
				-0.05023176968097687
			],
			"type":"VEC3"
		},
		{
			"bufferView":22,
			"componentType":5126,
			"count":3224,
			"type":"VEC2"
		},
		{
			"bufferView":23,
			"componentType":5126,
			"count":3224,
			"type":"VEC3"
		},
		{
			"bufferView":24,
			"componentType":5123,
			"count":17346,
			"type":"SCALAR"
		},
		{
			"bufferView":25,
			"componentType":5126,
			"count":48,
			"max":[
				0.03791718930006027,
				1.40409255027771,
				0.09379834681749344
			],
			"min":[
				-0.05310335010290146,
				1.3959643840789795,
				0.09092052280902863
			],
			"type":"VEC3"
		},
		{
			"bufferView":26,
			"componentType":5126,
			"count":48,
			"type":"VEC2"
		},
		{
			"bufferView":27,
			"componentType":5126,
			"count":48,
			"type":"VEC3"
		},
		{
			"bufferView":28,
			"componentType":5123,
			"count":48,
			"type":"SCALAR"
		},
		{
			"bufferView":29,
			"componentType":5126,
			"count":2376,
			"max":[
				0.20758840441703796,
				1.5110485553741455,
				-0.05872071534395218
			],
			"min":[
				-0.20758840441703796,
				1.0334538221359253,
				-0.18065957725048065
			],
			"type":"VEC3"
		},
		{
			"bufferView":30,
			"componentType":5126,
			"count":2376,
			"type":"VEC2"
		},
		{
			"bufferView":31,
			"componentType":5126,
			"count":2376,
			"type":"VEC3"
		},
		{
			"bufferView":32,
			"componentType":5123,
			"count":12192,
			"type":"SCALAR"
		},
		{
			"bufferView":33,
			"componentType":5126,
			"count":214,
			"max":[
				0.0665537565946579,
				1.4183467626571655,
				0.10656222701072693
			],
			"min":[
				-0.0665537565946579,
				1.3986868858337402,
				0.0875316709280014
			],
			"type":"VEC3"
		},
		{
			"bufferView":34,
			"componentType":5126,
			"count":214,
			"type":"VEC2"
		},
		{
			"bufferView":35,
			"componentType":5126,
			"count":214,
			"type":"VEC3"
		},
		{
			"bufferView":36,
			"componentType":5123,
			"count":1224,
			"type":"SCALAR"
		},
		{
			"bufferView":37,
			"componentType":5126,
			"count":1008,
			"max":[
				0.09847845137119293,
				1.561555027961731,
				0.09052778035402298
			],
			"min":[
				-0.09847845137119293,
				1.2700833082199097,
				0.028376035392284393
			],
			"type":"VEC3"
		},
		{
			"bufferView":38,
			"componentType":5126,
			"count":1008,
			"type":"VEC2"
		},
		{
			"bufferView":39,
			"componentType":5126,
			"count":1008,
			"type":"VEC3"
		},
		{
			"bufferView":40,
			"componentType":5123,
			"count":5184,
			"type":"SCALAR"
		},
		{
			"bufferView":41,
			"componentType":5126,
			"count":504,
			"max":[
				0.10858958959579468,
				1.5690373182296753,
				0.11401863396167755
			],
			"min":[
				-0.10858958959579468,
				1.3020962476730347,
				0.020287036895751953
			],
			"type":"VEC3"
		},
		{
			"bufferView":42,
			"componentType":5126,
			"count":504,
			"type":"VEC2"
		},
		{
			"bufferView":43,
			"componentType":5126,
			"count":504,
			"type":"VEC3"
		},
		{
			"bufferView":44,
			"componentType":5123,
			"count":2592,
			"type":"SCALAR"
		},
		{
			"bufferView":45,
			"componentType":5126,
			"count":435,
			"max":[
				0.08311660587787628,
				0.14193463325500488,
				0.1286509782075882
			],
			"min":[
				0.025281742215156555,
				0.05895308032631874,
				-0.03248277306556702
			],
			"type":"VEC3"
		},
		{
			"bufferView":46,
			"componentType":5126,
			"count":435,
			"type":"VEC2"
		},
		{
			"bufferView":47,
			"componentType":5126,
			"count":435,
			"type":"VEC3"
		},
		{
			"bufferView":48,
			"componentType":5123,
			"count":2022,
			"type":"SCALAR"
		}
	],
	"bufferViews":[
		{
			"buffer":0,
			"byteLength":22200,
			"byteOffset":0,
			"target":34962
		},
		{
			"buffer":0,
			"byteLength":14800,
			"byteOffset":22200,
			"target":34962
		},
		{
			"buffer":0,
			"byteLength":22200,
			"byteOffset":37000,
			"target":34962
		},
		{
			"buffer":0,
			"byteLength":17610,
			"byteOffset":59200,
			"target":34963
		},
		{
			"buffer":0,
			"byteLength":1584,
			"byteOffset":76812,
			"target":34962
		},
		{
			"buffer":0,
			"byteLength":1056,
			"byteOffset":78396,
			"target":34962
		},
		{
			"buffer":0,
			"byteLength":1584,
			"byteOffset":79452,
			"target":34962
		},
		{
			"buffer":0,
			"byteLength":1260,
			"byteOffset":81036,
			"target":34963
		},
		{
			"buffer":0,
			"byteLength":1584,
			"byteOffset":82296,
			"target":34962
		},
		{
			"buffer":0,
			"byteLength":1056,
			"byteOffset":83880,
			"target":34962
		},
		{
			"buffer":0,
			"byteLength":1584,
			"byteOffset":84936,
			"target":34962
		},
		{
			"buffer":0,
			"byteLength":1536,
			"byteOffset":86520,
			"target":34963
		},
		{
			"buffer":0,
			"byteLength":227018,
			"byteOffset":88056
		},
		{
			"buffer":0,
			"byteLength":3924,
			"byteOffset":315076,
			"target":34962
		},
		{
			"buffer":0,
			"byteLength":2616,
			"byteOffset":319000,
			"target":34962
		},
		{
			"buffer":0,
			"byteLength":3924,
			"byteOffset":321616,
			"target":34962
		},
		{
			"buffer":0,
			"byteLength":2814,
			"byteOffset":325540,
			"target":34963
		},
		{
			"buffer":0,
			"byteLength":4896,
			"byteOffset":328356,
			"target":34962
		},
		{
			"buffer":0,
			"byteLength":3264,
			"byteOffset":333252,
			"target":34962
		},
		{
			"buffer":0,
			"byteLength":4896,
			"byteOffset":336516,
			"target":34962
		},
		{
			"buffer":0,
			"byteLength":4368,
			"byteOffset":341412,
			"target":34963
		},
		{
			"buffer":0,
			"byteLength":38688,
			"byteOffset":345780,
			"target":34962
		},
		{
			"buffer":0,
			"byteLength":25792,
			"byteOffset":384468,
			"target":34962
		},
		{
			"buffer":0,
			"byteLength":38688,
			"byteOffset":410260,
			"target":34962
		},
		{
			"buffer":0,
			"byteLength":34692,
			"byteOffset":448948,
			"target":34963
		},
		{
			"buffer":0,
			"byteLength":576,
			"byteOffset":483640,
			"target":34962
		},
		{
			"buffer":0,
			"byteLength":384,
			"byteOffset":484216,
			"target":34962
		},
		{
			"buffer":0,
			"byteLength":576,
			"byteOffset":484600,
			"target":34962
		},
		{
			"buffer":0,
			"byteLength":96,
			"byteOffset":485176,
			"target":34963
		},
		{
			"buffer":0,
			"byteLength":28512,
			"byteOffset":485272,
			"target":34962
		},
		{
			"buffer":0,
			"byteLength":19008,
			"byteOffset":513784,
			"target":34962
		},
		{
			"buffer":0,
			"byteLength":28512,
			"byteOffset":532792,
			"target":34962
		},
		{
			"buffer":0,
			"byteLength":24384,
			"byteOffset":561304,
			"target":34963
		},
		{
			"buffer":0,
			"byteLength":2568,
			"byteOffset":585688,
			"target":34962
		},
		{
			"buffer":0,
			"byteLength":1712,
			"byteOffset":588256,
			"target":34962
		},
		{
			"buffer":0,
			"byteLength":2568,
			"byteOffset":589968,
			"target":34962
		},
		{
			"buffer":0,
			"byteLength":2448,
			"byteOffset":592536,
			"target":34963
		},
		{
			"buffer":0,
			"byteLength":12096,
			"byteOffset":594984,
			"target":34962
		},
		{
			"buffer":0,
			"byteLength":8064,
			"byteOffset":607080,
			"target":34962
		},
		{
			"buffer":0,
			"byteLength":12096,
			"byteOffset":615144,
			"target":34962
		},
		{
			"buffer":0,
			"byteLength":10368,
			"byteOffset":627240,
			"target":34963
		},
		{
			"buffer":0,
			"byteLength":6048,
			"byteOffset":637608,
			"target":34962
		},
		{
			"buffer":0,
			"byteLength":4032,
			"byteOffset":643656,
			"target":34962
		},
		{
			"buffer":0,
			"byteLength":6048,
			"byteOffset":647688,
			"target":34962
		},
		{
			"buffer":0,
			"byteLength":5184,
			"byteOffset":653736,
			"target":34963
		},
		{
			"buffer":0,
			"byteLength":5220,
			"byteOffset":658920,
			"target":34962
		},
		{
			"buffer":0,
			"byteLength":3480,
			"byteOffset":664140,
			"target":34962
		},
		{
			"buffer":0,
			"byteLength":5220,
			"byteOffset":667620,
			"target":34962
		},
		{
			"buffer":0,
			"byteLength":4044,
			"byteOffset":672840,
			"target":34963
		}
	],
	"samplers":[
		{
			"magFilter":9729,
			"minFilter":9987
		}
	],
	"buffers":[
		{
			"byteLength":676884,
			"uri":"data:application/octet-stream;base64,"
		}
	]
}
